<svg xmlns="http://www.w3.org/2000/svg" viewBox="0 0 88 58"><defs><linearGradient id="leaf" x2="1" y2="1"><stop stop-color="#79aa74"/><stop offset=".5" stop-color="#2f684b"/><stop offset="1" stop-color="#123d30"/></linearGradient><radialGradient id="berry" cx=".3" cy=".25"><stop stop-color="#ffb9a0"/><stop offset=".25" stop-color="#e44847"/><stop offset="1" stop-color="#83162b"/></radialGradient></defs><path d="M44 35L35 18 29 20 26 8 17 11 12 3 9 16 2 21 13 26 12 36 26 33 31 42Z" fill="url(#leaf)" stroke="#9aab6e" stroke-width=".8"/><path d="M44 35L52 17 60 21 65 8 72 15 82 11 78 24 87 31 74 33 72 43 60 37 54 47Z" fill="url(#leaf)" stroke="#9aab6e" stroke-width=".8"/><path d="M14 14L43 37M76 21L45 38" stroke="#b7c395" stroke-width="1" opacity=".6"/><circle cx="39" cy="37" r="7" fill="url(#berry)"/><circle cx="50" cy="35" r="7" fill="url(#berry)"/><circle cx="45" cy="46" r="7" fill="url(#berry)"/><g fill="#fff4dd" opacity=".8"><circle cx="20" cy="46" r="1.3"/><circle cx="68" cy="3" r="1.5"/><circle cx="4" cy="42" r="1"/></g></svg>